<svg id="Layer_1" data-name="Layer 1" xmlns="http://www.w3.org/2000/svg" viewBox="0 0 68.16 68.72"><defs><style>.cls-1{fill:#fff;}.cls-2{fill:#004054;}.cls-3{opacity:0.39;}</style></defs><title>ball</title><path class="cls-1" d="M2.63,43.12c.15-.44.59-16.38.59-16.38l6.93-12.69L23.73,4.32,39.08,1.81,53.39,6.24,65,17.45,70.5,32.06,68.44,48.88l-8.7,12.84L46.31,69.39l-20.07.3L10.75,59.21Z" transform="translate(-2.52 -1.67)"/><path class="cls-2" d="M45,69.09C45.27,67.91,51.47,47,51.47,47l-6.2-8.56-17.7,8.85,16.52,4.13Z" transform="translate(-2.52 -1.67)"/><polygon class="cls-2" points="7.04 32.02 7.04 41.46 30.06 55.33 7.04 32.02"/><path d="M14.59,33.68,47.34,23.06,44.68,34Z" transform="translate(-2.52 -1.67)"/><path class="cls-2" d="M21.08,6.24l-9.74,13s.89,8,2.07,6.79S42.91,4.17,42.91,4.17,17.24,17.75,17.83,16.86,21.08,6.24,21.08,6.24Z" transform="translate(-2.52 -1.67)"/><path d="M38.19,9.19c-.59.89-7.08,5.31-5.9,5.61s13.57,6.49,13.57,6.49Z" transform="translate(-2.52 -1.67)"/><polygon points="55.14 35.26 51.6 47.36 53.08 61.52 59.57 43.52 66.95 35.26 55.14 35.26"/><path class="cls-2" d="M44.09,4.47l8.26,7.67,5.9,20.07,9.15-7.67-4.13-8.85s-2.36,10-2.66,8.85S56.49,11,56.49,11Z" transform="translate(-2.52 -1.67)"/><polygon points="1.14 42.05 3.5 35.56 13.24 60.05 1.14 42.05"/><polygon points="19.44 52.08 23.86 66.25 28.88 56.8 19.44 52.08"/><polyline class="cls-3" points="23.68 68.05 44.04 67.83 57.1 60.2 66.06 47.25 68.16 30.32 62.74 15.71 50.9 4.43 36.74 0 50.9 8.52 61.19 21.58 63.85 33.2 59.2 46.92 48.69 55.88 39.5 59.87 46.7 54.33 50.9 47.8 44.93 53 34.75 58.09 20.58 58.09 11.4 51.23 16.82 58.43 22.91 62.08 12.17 58.32 0 41.94 8.08 57.65 24.45 68.72"/><polygon class="cls-3" points="56.88 32.64 54.55 41.05 44.93 50.79 33.75 54.77 44.26 48.58 52.89 38.95 56.88 32.64"/><polygon class="cls-3" points="53.23 20.47 55.99 29.43 52.78 36.85 45.59 44.37 39.5 44.93 47.91 39.39 52.12 32.53 53.23 20.47"/><polygon class="cls-3" points="42.27 40.17 33.97 45.26 22.68 43.49 33.75 42.82 42.27 40.17"/><path class="cls-3" d="M14.59,50c.22.33,9,6.31,9,6.31l11.73-1.44,9-5.42-12.5,3.76-8.85-1Z" transform="translate(-2.52 -1.67)"/></svg>