<svg id="Layer_1" data-name="Layer 1" xmlns="http://www.w3.org/2000/svg" viewBox="0 0 1318.98 897.35"><defs><style>.cls-1{fill:#fff;}.cls-2{fill:#00aeef;}.cls-3{fill:#003a47;}.cls-4{opacity:0.4;}.cls-5{fill:#84dcf7;}.cls-6{fill:#999;}</style></defs><title>character</title><polygon class="cls-1" points="1181.64 816.22 1195.87 800.57 1210.82 801.99 1232.16 814.8 1239.28 832.59 1260.63 841.13 1282.69 841.84 1318.98 876 1311.87 897.35 1262.77 893.79 1235.01 872.44 1193.03 852.51 1180.22 844.69 1181.64 816.22"/><path class="cls-2" d="M928.35,773.69c3.56.71,51.95,22.77,51.95,22.77s27.75-3.56,29.89-3.56,32,14.94,34.16,15.66,21.35,27.75,21.35,27.75l22.77,4.27,35.58-12.1,3.56-21.35-15.66-35.58s-29.89-4.27-32.73-6.4-25.62-29.89-25.62-29.89L1023,722.45,990.26,684l-13.52,52.66Z" transform="translate(-4.31 -10.13)"/><path class="cls-3" d="M1109.1,771.55c2.13-.71,10.67-1.42,10.67-1.42L1145.39,795l58.35,24.91L1221.53,837l-10,22.06-49.81-9.25-51.24-6.4-27.75-3.56,38.43-13.52,6.4-19.21Z" transform="translate(-4.31 -10.13)"/><path class="cls-4" d="M933.33,768c4.27,0,47.68,23.48,47.68,23.48l29.89-2.85,20.64,3.56L1051.46,805l19.93,29.18s14.94,4.27,17.79,3.56,30.6-10.67,30.6-10.67,8.54-16.37,7.12-19.21-6.4-14.94-6.4-14.94l-29.18,5.69-14.23-26.33-23.48-21.35,6.4,19.21-25.62.71-10-23.48-23.48-38.43,3.56,36.29s-19.21,23.48-22.06,23.48S933.33,768,933.33,768Z" transform="translate(-4.31 -10.13)"/><path class="cls-1" d="M1041.49,579.42l-6.4,14.23,32.73,14.23,8.54,11.39s39.14,7.12,39.85,5,2.85-21.35,2.85-21.35l-27-25.62Z" transform="translate(-4.31 -10.13)"/><path class="cls-2" d="M1010.9,486.2c3.56.71,59.06,18.5,59.06,18.5s34.87,28.46,37,28.46,19.93,9.25,19.93,9.25l3.56,29.18-12.1,2.13L1087.75,588H1055l-8.54-35.58Z" transform="translate(-4.31 -10.13)"/><path class="cls-4" d="M1026.55,503.28c2.85.71,41.27,50.52,41.27,50.52l-8.54,30.6-.71,2.85s27,4.27,29.18,2.85,10.67-7.83,10.67-7.83l22.06-7.83,10-2.13-10.67-25.62-27-5.69-2.13-10.67Z" transform="translate(-4.31 -10.13)"/><path d="M1019.43,494c2.85,2.85,29.18,25.62,29.18,25.62s45.54,20.64,43.41,19.93-33.45-7.83-33.45-7.83l17.08,23.48L1055,588l2.85-36.29Z" transform="translate(-4.31 -10.13)"/><path d="M1099.14,546.68c2.13,2.13,12.81,22.77,12.81,22.77l-2.13,6.4,12.1-7.12Z" transform="translate(-4.31 -10.13)"/><path d="M1097,538.86c2.13,0,22.06,3.56,22.06,3.56l-14.94-8.54Z" transform="translate(-4.31 -10.13)"/><path d="M1063.55,580.84c2.13,0,16.37.71,16.37.71l15.66-10-10.67,12.1Z" transform="translate(-4.31 -10.13)"/><polygon points="1057.82 575.7 1083.44 577.83 1089.84 575.7 1110.48 596.33 1107.63 607.01 1088.42 604.16 1094.11 592.06 1082.73 604.16 1088.42 588.5 1076.32 601.31 1070.63 598.47 1082.73 584.24 1069.21 593.49 1052.13 587.08 1054.97 575.7 1057.82 575.7"/><path class="cls-1" d="M843.67,458.09h74.72s43.76,16,47,16,42.7,5.34,42.7,5.34L1064.62,551l-10.67,45.9L1008,583l-26.69,10.67-40.56-5.34-7.47,18.15,22.42,42.7,40.56,38.43L1007,746.29l-21.35,23.48-63,8.54L865,739.89l-57.64-14.94-43.76-38.43-12.45-5.34L801,627.81l42.7-169.72" transform="translate(-4.31 -10.13)"/><path class="cls-4" d="M745.82,678l4.27,10.67,12.81,1.07s44.83,37.36,48,37.36,54.44,18.15,54.44,18.15l56.57,35.22,21.35-4.27,44.83-12.81,11.74-28.82-3.2-45.9-39.49-39.49-21.35-39.49,6.4-19.21,37.36,6.4,29.89-11.74,44.83,10.67L1065,554.16l1.07-5.34s-16-22.42-21.35-20.28S963.57,567,963.57,567l4.27-23.48s61.91-29.89,55.51-28.82-81.12,22.42-81.12,22.42l50.17-37.36-80.06,19.21,29.89-22.42-49.1-5.34-59.78-25.62S876,548.82,875,552s-19.21,83.26-19.21,83.26Z" transform="translate(-4.31 -10.13)"/><path d="M996.31,687.58c1.07,3.56,22.42,54.79,22.42,54.79l-15.66,27.75L974.6,778l-32.73.71L931.19,773l52.66-15.66,14.23-27Z" transform="translate(-4.31 -10.13)"/><path d="M1015.16,765.86,1028,786.5l-21.35,2.13,22.06,5s17.08,10.67,19.21,10.67,35.58-2.85,35.58-2.85,12.81,22.06,14.94,22.06,24.19-2.13,24.19-2.13-19.93-2.13-20.64-4.27-17.79-32-17.79-32v10l-25.62,3.56,1.42-7.12-21.35-2.85L1026.55,773l37-2.13-7.12-7.83-14.94,4.27Z" transform="translate(-4.31 -10.13)"/><path d="M1045.05,740.24c1.42,2.13,11.39,19.21,11.39,19.21l7.12,4.27,4.27,11.39,2.13,12.1,10.67,5-5-9.25,2.13-10.67-9.25-10Z" transform="translate(-4.31 -10.13)"/><path d="M1062.84,807.85l10.67-.71,12.81,18.5,13.52,3.56s-16.37.71-17.79-1.42S1062.84,807.85,1062.84,807.85Z" transform="translate(-4.31 -10.13)"/><path d="M1095.58,837c2.85-1.42,28.46-8.54,28.46-8.54l3.56-21.35-13.52-28.46,18.5,27.75-2.13,20.64,5-12.1.71,10.67,5-10v10.67l4.27-14.94-3.56-12.1,7.12,12.81-2.13,17.79-2.13,7.12-14.94,4.27Z" transform="translate(-4.31 -10.13)"/><polygon points="1147.48 810.53 1146.06 825.47 1140.37 831.16 1190.18 838.99 1196.59 824.05 1194.45 840.42 1203.7 843.98 1207.97 831.88 1200.14 836.86 1195.16 819.78 1187.33 834.01 1151.75 826.18 1147.48 810.53"/><path d="M1204.45,823.5c2.13,1.42,14.23,14.94,14.23,14.94l-7.12,20.64-9.25-2.13-34.16-7.12,30.6,10,15.66,6.4,42,18.5,12.1-21.35L1255,879l-5.69-3.56,5-19.21-10,14.94,4.27-18.5L1240,869.76l4.27-19.93L1225.8,842l7.12-3.56-12.81-9.25Z" transform="translate(-4.31 -10.13)"/><polygon points="1267.75 857.5 1257.07 877.42 1250.67 878.13 1260.63 885.25 1269.17 873.15 1264.9 887.38 1306.88 892.36 1311.15 876.71 1304.04 886.67 1304.75 873.15 1289.81 880.98 1299.77 866.03 1282.69 853.94 1267.75 857.5"/><path class="cls-3" d="M408.16,492.6l33.45-27.75L495,389.42,485.72,351l15.66-23.48,89,.71,23.48-5,26.33,22.06-2.85,6.4,29.18,7.12,37.72,32.73,24.19,5s16.37,19.21,18.5,18.5S791,412.19,791,412.19l19.21,19.93L829.43,435s34.87,83.26,37,84.68,9.25,7.12,9.25,7.12l1.42,22.06-14.94,85.39-49.81,19.93-61.2,27-3.56-6.4-7.83,5.69L716.29,662l-32.73-.71-9.25-17.08-33.45,5.69-10-17.08-11.39,8.54-30.6-17.08s-59.78-6.4-59.78-9.25-6.4-7.12-6.4-7.12L515.61,615l-42.7-22.77-50.52-59.78Z" transform="translate(-4.31 -10.13)"/><path d="M835.84,444.92l30.6,74.72,9.25,7.12,1.42,22.06-14.94,85.39-13.52,6.4-74,36.29-19.21,5.69,22.06,2.13,38.43,24.19,7.83-4.27,59.06,6.4,39.85-3.56-44.12-5S833,694,830.86,691.14s-11.39-18.5-11.39-18.5l-22.06,4.27,81.12-39.85-10.67-1.42,16.37-91.09,3.56,16.37L883.52,568l9.25,43.41,36.29,59.06-27-54.08,13.52,14.23S896.33,583,896.33,580.84s-2.13-27-2.13-27-4.27-10.67-2.85-12.81,34.87-35.58,34.87-35.58l-36.29,27-27.75-50.52,15.66,14.94,7.83-5.69L907,496.87s14.23-10,12.1-10-18.5,1.42-18.5,1.42l.71-5.69-47.68-14.23Z" transform="translate(-4.31 -10.13)"/><path d="M903.44,476.95s17.79-8.54,19.93-8.54,34.16,9.25,34.16,9.25Z" transform="translate(-4.31 -10.13)"/><path d="M949.7,527.47,906.29,551l-.71,25.62,12.81,51.24,3.56-2.13,9.25,37,27.75,56.22,18.5,19.93s-14.23-27.75-16.37-29.89-34.87-90.38-34.87-90.38l43.41,87.53L981,716l-29.18-65.47-22.06-44.12,10-24.19,19.21,4.27,18.5-.71,61.91-27-19.93,2.85,18.5-9.25-24.91,6.4,24.19-14.23L965.35,572.3,954,575.15l39.85-21.35,24.91-10,24.19-16.37-16.37,2.13-61.2,29.18-25.62,2.13-9.25,18.5-5,6.4v-30.6l37-32.73Z" transform="translate(-4.31 -10.13)"/><path d="M989.55,513.24l-14.23,5.69-8.54,13.52-22.06,17.08,23.48-7.12H986s16.37-19.93,18.5-20.64,22.77-10.67,22.77-10.67l-29.18,5.69Z" transform="translate(-4.31 -10.13)"/><polygon points="963.89 500.98 981.68 484.61 998.76 486.74 963.89 500.98"/><path d="M813.07,713.91c4.27-.71,57.64,2.13,59.78,2.13s21.35,5,21.35,5l-5-5.69,45.54,8.54-9.25,5.69,52.66,19.93-19.21-1.42,19.93,10.67s-31.31-10-28.46-8.54l22.77,11.39-41.27-11.39,17.79,15.66h12.1L927.64,773l-40.56-28.46h12.1l-30.6-19.21-10.67,3.56L823,720.32Z" transform="translate(-4.31 -10.13)"/><path d="M843.67,687.58c2.13,0,59.06,13.52,59.06,13.52l-11.39-14.23Z" transform="translate(-4.31 -10.13)"/><path d="M491.42,348.14C495,349.57,531.27,388,531.27,388l54.79,4.27-55.51-15.66-12.1-13.52,24.91,10L596,369.49s-52.66-2.85-54.79-5-28.46-14.23-28.46-14.23l-18.5-10Z" transform="translate(-4.31 -10.13)"/><path d="M497.11,359.53c2.13,2.85,29.89,37.72,29.89,37.72l24.19,7.12-26.33-2.85Z" transform="translate(-4.31 -10.13)"/><path d="M504.23,392.26c2.85,2.13,45.54,24.91,45.54,24.91l17.79,27-.71-25.62-11.39-15.66L574,418.59l-3.56,29.18,7.12,9.25-2.13,10,4.27,18.5,1.42,54.79s5-19.93,4.27-17.79,1.42,29.18,1.42,29.18l2.85-17.08,2.13,32.73,2.13-29.89L582.5,492.6l-2.13-31.31,5.69-61.2,5.69-11.39-3.56,47.68,5-15.66s-2.85,33.45-2.13,35.58,18.5,59.06,18.5,59.06l5-.71-6.4,34.87,3.56,50.52,29.18-37-11.39,22.77,25.62-29.18-14.94,23.48,20.64-22.06L649.4,580.13l22.06-21.35-49.1,60.49h-8.54l.71,8.54-12.81-5.69-9.25-14.94,1.42,8.54-18.5-6.4,2.13-5.69-17.08-19.93-5-48.39v46.25L566.14,605l-13.52-1.42-19.93,2.85-9.25-25.62-9.25-17.79-8.54-11.39-10-47L485,496.16,501.38,499l29.89-12.81-8.54,10,7.12-3.56-6.4,12.1L525.57,526l6.4-27.75,15.66-47s9.25,5.69,8.54,3.56-12.81-35.58-12.81-35.58Z" transform="translate(-4.31 -10.13)"/><path d="M439.47,487.62c3.56.71,42,15.66,42,15.66L495,528.18s9.25,27.75,7.12,26.33S473.63,526,473.63,526l10.67,2.85-27-23.48s7.12,15.66,5,13.52S438,498.29,440.18,497.58s9.25,0,9.25,0Z" transform="translate(-4.31 -10.13)"/><polygon points="433.73 493.86 454.37 515.21 451.52 522.33 433.73 493.86"/><path d="M464.38,526.76c4.27,3.56,39.85,33.45,39.85,33.45l7.12,6.4,12.1,36.29-7.83-1.42L499.24,573l1.42,24.19-9.25-17.08v13.52l-10.67-27L485,592.23l-21.35-39.14,5.69,2.13-10-17.08Z" transform="translate(-4.31 -10.13)"/><path d="M601,375.9,594.6,435l6.4,14.23L599.58,462l18.5,40.56v29.18l-2.13,20.64,2.13,5s-1.42,29.18-.71,27S633,531.74,633,531.74V551l5-17.79-3.56-26.33s4.27-15.66,3.56-19.21-5-66.89-5-66.89l10,62.62,3.56,49.81L629.47,572.3l24.19-39.85-6.4,24.19,14.23-22.77-6.4,22.77,12.81-22.06-2.13,19.93,10-20.64,2.13-12.1-5.69-42,8.54,34.87-12.1-83.26V467l-6.4-33.45-.71,19.93-14.94-43.41-2.85,22.06-22.06-66.89-9.25,2.85,2.13,61.2,3.56-13.52s3.56,27,4.27,23.48,2.85-27,2.85-27l7.12,69s-1.42,14.94-2.13,12.81-24.91-72.58-24.91-72.58l2.13-20.64-4.27.71Z" transform="translate(-4.31 -10.13)"/><path d="M633.74,357.4c.71,2.13,23.48,65.47,23.48,65.47l-.71-19.93s27,22.77,24.91,19.93-27-50.52-27-50.52l2.85,16.37Z" transform="translate(-4.31 -10.13)"/><path d="M677.15,428.56l23.48,93.22,6.4.71-.71,14.94,12.81,61.2,5-21.35-8.54-27-6.4-34.16-29.89-126,17.08,41.27s-2.85-25.62-2.13-23.48,10.67,29.89,10.67,29.89L702.77,420l8.54,21.35V420.73l12.1,52.66-2.13,5.69,4.27,6.4.71,17.79,13.52,44.12-8.54-42.7.71-27,3.56-4.27V451.33l6.4,24.91-1.42,13.52L759,567.32l14.94,49.1-.71,12.81-6.4,9.25,2.13,10.67-28.46,23.48-21.35-19.93-25.62,2.85-9.25-24.91-27.75,4.27,16.37-20.64-45.54,11.39L648,603.61l-19.21,12.81L670,568l12.81-42-5.69-67.6Z" transform="translate(-4.31 -10.13)"/><path d="M764.68,498.29l-5,27,12.81,69,5,7.12,1.42,18.5,6.4-5.69L806,559.49l-14.23-38.43-7.83-42L786,512.53l14.23,49.1s-5.69,14.94-5.69,12.81S781,503.28,781,506.12s.71,41.27.71,41.27L774.64,514l2.13,42.7-7.12-29.89,1.42-28.46-5,14.23Z" transform="translate(-4.31 -10.13)"/><path d="M794.56,601.48,791,615s-19.93,28.46-17.79,27.75S786,634.92,786,634.92s-3.56,5.69.71,4.27,46.25-18.5,44.12-17.79-34.16,8.54-34.16,8.54l11.39-12.1-15.66,7.83Z" transform="translate(-4.31 -10.13)"/><path d="M751.87,671.22c3.56-2.85,22.06-22.06,22.06-22.06l60.49-19.21-22.06,11.39,14.23-3.56L785.31,657l60.49-18.5Z" transform="translate(-4.31 -10.13)"/><path d="M820.89,563.05l-22.06,55.51,17.79-14.23s-7.83,20.64-5.69,19.21,13.52-4.27,13.52-4.27l4.27-24.19L828,619.27l7.12,1.42L847.94,541l-12.1,26.33L835.13,551l-11.39,34.87Z" transform="translate(-4.31 -10.13)"/><path d="M786.74,449.9c.71,5,7.12,53.37,7.12,53.37l24.91,74-5-33.45,7.12,19.21-2.13-27s7.12,15.66,7.12,13.52-2.13-22.77-2.13-22.77l6.4,7.83-7.83-61.91s-1.42,24.19-2.13,22.06-2.85-12.1-2.85-12.1l-2.85,14.94s-4.27-14.94-4.27-12.81-2.85,14.94-2.85,14.94l-7.83-34.87Z" transform="translate(-4.31 -10.13)"/><path d="M756.14,435.67c.71,2.13,12.81,37,12.81,37l3.56,18.5,1.42-18.5,5,10-5-48.39-5,16.37-5-16.37-.71,12.81Z" transform="translate(-4.31 -10.13)"/><polygon points="747.56 446.18 756.1 465.4 751.83 492.44 747.56 446.18"/><path d="M724.11,417.88l13.52,14.94s-3.56,14.23-4.27,12.1S724.11,417.88,724.11,417.88Z" transform="translate(-4.31 -10.13)"/><path d="M773.93,421.44c2.85,2.85,17.08,22.77,17.08,22.77l8.54-10Z" transform="translate(-4.31 -10.13)"/><path d="M803.82,452.75s6.4,22.77,7.12,20.64a92.61,92.61,0,0,1,4.27-8.54Z" transform="translate(-4.31 -10.13)"/><path d="M815.91,438.52c1.42,2.13,27,90.38,27,90.38l1.42-15.66,13.52,34.87L843,494.74l13.52,17.08-29.89-62.62,8.54,33.45Z" transform="translate(-4.31 -10.13)"/><path d="M868.57,530.32,855.76,565.9l3.56-28.46-11.39,31.31s-12.1,66.18-10.67,64,16.37-58.35,16.37-54.79S843,638.48,843,638.48l15.66-3.56,2.13-30.6,12.81-66.89-14.94,47Z" transform="translate(-4.31 -10.13)"/><path d="M598.16,349.57c4.27-.71,25.62-3.56,25.62-3.56L606,333.2Z" transform="translate(-4.31 -10.13)"/><path d="M589.62,360.24c2.85,0,15.66,5,15.66,5l21.35-10.67Z" transform="translate(-4.31 -10.13)"/><path d="M423.1,484.77c2.13-.71,17.79-2.85,17.79-2.85l12.81,5.69,19.93-2.85-17.08-4.27-10.67-7.12-6.4-2.85Z" transform="translate(-4.31 -10.13)"/><path d="M499.24,385.86c2.13.71,10.67,5.69,10.67,5.69l-11.39-23.48Z" transform="translate(-4.31 -10.13)"/><polygon points="627.29 621.95 636.54 626.22 653.62 615.55 627.29 621.95"/><path class="cls-2" d="M324.9,333.73c0,2.13.53,36.83.53,36.83l-4.27,3.2,6.4,19.21.53,4.27-9.61,14.94,9.07.53,10.67,7.47L345.71,441l4.27-3.74,6.94,5.87,9.61,9.07,18.68.53v5.34l14.94,7.47,24,1.07-1.07-5.87,14.94,8,8.54,3.74L459.93,481l39,10.14,27.75-10.67,3.2,3.74,11.21-33.09-10.14-36.29-34.16-22.42-4.8-2.13S481.28,379.63,481.28,378s2.13-8,2.13-8l-8.54-16-14.41-12.28-5.87,1.07-9.07-6.94-5.34-8-12.81-4.8-2.13-5.34L413,316.66l2.67-8.54,1.07-4.8L405,308.12l6.4-8L400.69,299,382,303.85,369.2,316.66l6.94-14.41-11.21,9.61-9.61,4.8,9.07-11.74L342,315.59l-3.2,22.95-7.47,1.6Z" transform="translate(-4.31 -10.13)"/><path class="cls-3" d="M346.6,380.7c1.07-1.6,18.15-24.55,18.15-24.55l9.07-12.28,20.81-14.41,2.67,4.8,15.48-5.34,13.88,5.87,1.07,5.34,12.28,4.8,7.47,3.74,5.34,9.61,24,18.15L471,366.29s-14.41-11.21-16-12.81-2.67-10.14-2.67-10.14l3.2-3.74-8.81-3.47-7.21-9.87-9.87-3.2-4-6.4-10.67-.53,4-15.48L410.11,306l5.6-8.27L401,299l-18.68,3.2-10.14,10.14,8-13.88-6.94,5.87-7.47,5.34s-7.65,4.27-6.23,4.27,6.4-10.14,6.4-10.14l-17.26,8-6.76,3.2-3.65,22.15s-5.07,2.13-6,1.87c-1.68-.5-8.18-7.47-8.18-7.47l-1.07,39-2.67,2.67,6.94,23.48-9.61,16,9.34,1.6,11.74,9.34,7.74,20.55,3.38-5.87,18,16,17.26-.53,5.69-3.2,22.42,7.47,4.27-2.67-37.89-19.75S361,425.53,359.41,425.53s-.53-9.07-2.13-9.07-8.54-4.8-8.54-4.8l-8-18.68,3.2-2.67Z" transform="translate(-4.31 -10.13)"/><path class="cls-4" d="M357.54,398.58l21.08-6.94,13.52-1.87,9.07-2.67,5.52,4.8,6.76,2.49,7.83,5.69,12.1,2.49-14.59,13.88.53-8,12.28-3.2L431.11,394l9.07-4.27.53,6.94-4.27,7.47,6.4,3.2-.53,3.74-4.8,1.6-2.13-4.27-5.34,1.6-.53,4.8L427.37,417,430,431.4l13.34,16,7.47,3.2,12.81-2.13V437.27l4.8-10.67s.53,6.94,2.13,5.87,12.28-5.34,12.28-5.34l12.81,5.34,4.8,12.28-11.74,15.48,18.15-13.34-3.74-26.15L501,406.85s4.8-1.07,6.4,0,25.08,24.55,25.08,24.55l9.61,20.28-11.74,33.09-4.27-3.2-28.29,10.14L458.33,481l-34.69-20.28,1.07,6.94-26.15-1.07-13.88-7.47.53-5.34,1.6-13.52-19.57-10-7.47-5-2.13-7.47L348,412.55,342,393" transform="translate(-4.31 -10.13)"/><polygon class="cls-4" points="386.23 338.02 383.56 355.1 395.84 373.77 404.91 368.97 400.64 362.03 393.17 360.97 386.23 338.02"/><path class="cls-4" d="M406.56,363.62c.53-1.6,6.94-19.21,6.94-19.21l14.41,1.07,6.4,4.27-7.47,8.54H419.9l-7.47,9.61L411.36,378l-2.13,1.07Z" transform="translate(-4.31 -10.13)"/><path class="cls-4" d="M427.91,375.36c1.6-1.6,9.07-8.54,9.07-8.54l18.15,1.07Z" transform="translate(-4.31 -10.13)"/><polygon points="389.26 355.1 392.82 361.14 397.44 360.43 397.44 353.67 403.13 333.39 409.89 331.61 420.21 334.81 410.61 334.81 408.12 340.86 403.13 356.16 405.63 366.13 406.34 357.94 407.4 354.38 414.88 345.85 421.64 347.27 425.91 344.78 422.35 349.76 415.94 348.69 417.01 351.09 411.94 358.3 408.83 357.59 408.47 365.06 412.03 360.79 410.25 365.41 414.88 365.06 419.15 366.84 407.76 371.11 417.72 376.44 420.57 384.63 414.88 377.51 404.2 372.53 398.87 371.82 399.93 368.62 397.44 362.92 391.75 363.28 389.26 355.1"/><path d="M423.46,372c.36-1.07,1.78-7.12,1.78-7.12L432,357l-2.49,7.12Z" transform="translate(-4.31 -10.13)"/><polygon points="419.15 368.97 425.55 363.63 437.29 362.21 419.15 368.97"/><polygon points="384.28 340.86 385.7 361.14 382.14 355.1 384.28 340.86"/><polygon points="378.23 352.96 383.92 363.63 378.94 362.92 378.23 352.96"/><polygon points="386.41 369.33 389.61 377.51 397.09 376.09 398.87 381.43 407.05 387.83 416.65 389.61 413.45 393.17 411.67 397.79 414.88 405.26 425.19 405.26 417.01 407.04 422.35 419.5 422.7 421.99 438.72 437.29 418.79 421.28 408.47 397.79 410.25 392.81 403.13 391.39 399.22 387.47 399.93 392.81 400.29 400.28 397.44 413.09 397.8 401 396.73 397.08 394.95 402.77 392.11 403.84 382.85 413.09 391.04 401.35 394.24 388.54 390.68 394.23 391.75 388.9 385.34 391.39 387.39 394.06 383.12 401.53 380.36 399.93 378.58 402.06 382.14 405.98 379.3 412.02 379.65 406.69 376.81 402.06 380.72 393.88 386.77 387.47 383.21 388.19 368.62 398.15 365.42 399.22 368.27 410.25 362.93 402.06 360.79 392.45 381.43 382.49 380.36 378.94 386.41 378.58 381.79 372.17 386.41 369.33"/><path d="M362.61,390.84c1.42-1.07,12.45-7.12,12.45-7.12l6.76,1.78Z" transform="translate(-4.31 -10.13)"/><polygon points="352.61 389.25 360.44 382.85 372.54 381.78 352.61 389.25"/><polygon points="429.11 390.68 427.69 383.92 433.38 382.85 432.67 386.76 430.53 386.41 429.11 390.68"/><polygon points="428.04 372.89 436.58 367.55 444.41 366.84 451.17 362.92 446.19 370.39 437.29 370.04 428.04 372.89"/><path d="M436.62,365.22c1.07-.71,6.4-9.25,6.4-9.25l5.34,1.78Z" transform="translate(-4.31 -10.13)"/><path d="M364.39,356c0-1.07,2.85-28.11,2.85-28.11L369,340l2.49-16,.71,13.88,2.85-16,.36,13.16,3.91-16.72L379,332.84s3.91-17.79,3.91-16S380,341.38,380,341.38l-1.78-5-1.78,8.54s-1.07-7.47-1.07-6.4-2.49,10.32-2.49,9.25-.36-6.4-.36-6.4-3.2,10.67-2.85,9.61-1.42-6.76-1.42-6.76Z" transform="translate(-4.31 -10.13)"/><path d="M381.83,338.89c.36-1.42,4.63-24.19,4.63-23.13s-.71,14.59-.71,14.59l3.91-13.52L388.23,335l-2.13-1.78Z" transform="translate(-4.31 -10.13)"/><path d="M397.84,332.84c2.13-1.07,24.91-11.39,24.91-11.39l-14.23,4.27L421.68,319l-12.45,3.2,8.54-4.63-11.39,3.56,7.83-5-9.61,3.56s8.54-7.12,7.12-6-9.25,3.91-9.25,3.91l-11.74,10.67-.71,3.2,10-7.47s-7.83,7.83-6.76,7.47,8.9-5.69,8.9-5.69L395,333.56Z" transform="translate(-4.31 -10.13)"/><polygon points="387.12 313.82 388.9 305.64 403.13 297.45 394.24 304.93 407.4 299.94 394.95 306.71 388.55 313.82 387.12 313.82"/><path d="M368,323.24c1.07-1.42,10-15.66,10-15.66l-.71,6,10.67-10.32-3.2,6.76,13.88-10.32-8.18,11.39-9.61,3.56Z" transform="translate(-4.31 -10.13)"/><path d="M394.28,311.14c1.07-2.13,7.47-9.61,7.47-9.61l6.4,1.07Z" transform="translate(-4.31 -10.13)"/><path d="M409.94,329.29l10.32-.36s-7.83,2.85-8.9,3.2,10-.36,10-.36-6.76,2.49-7.83,2.49,10-.36,10-.36-5,2.13-6.76,2.85,10-.71,10-.71L422,338.54s20.64-2.13,22.06-2.13-10.32-2.13-11.39-2.13,10.32-.71,10.32-.71l-12.1-2.49,8.18-1.78-12.45-1.42,8.54-2.49s-14.81,1.12-19.91,1.87a12.89,12.89,0,0,0-1.44.27Z" transform="translate(-4.31 -10.13)"/><path d="M362.61,358.11l2.85-39.85s-4.27,25.62-4.27,24.55V320.75l-2.85,31s-1.42-24.19-1.42-23.13-1.42,29.89-1.42,29.89L351.94,330s1.78,41.63,2.13,40.56,3.56-9.61,3.56-9.61l.71,6Z" transform="translate(-4.31 -10.13)"/><path d="M351.94,323.59c1.42-1.07,12.1-11,12.1-11l-2.85,8.18,13.16-13.52-17.79,19.93.71-5.34Z" transform="translate(-4.31 -10.13)"/><polygon points="342.29 319.87 347.27 337.31 345.85 345.49 340.51 333.04 342.29 319.87"/><path d="M341.27,337.11c1.07,1.78,12.81,33.45,12.81,33.45l-8.18-12.1,6.4,15.66s-7.47-10.67-6.76-9.25,3.91,12.45,3.91,12.45l-8.9-12.1,7.12,13.88-18.86-33.8,10.67,13.52-6-14.94s10,18.5,9.61,16.72-6-18.86-6-18.86,8.18,14.23,7.83,12.45S341.27,337.11,341.27,337.11Z" transform="translate(-4.31 -10.13)"/><path d="M328.1,353.48c.36,1.07,2.13,14.59,2.13,14.59s14.23,9.25,13.52,8.18S328.1,353.48,328.1,353.48Z" transform="translate(-4.31 -10.13)"/><path d="M345.89,379.1c-1.07-.36-18.5-8.9-17.43-8.54s11.39,8.54,11.39,8.54L326,373.76l14.59,7.83s-17.43-4.27-14.23-3.2,13.88,6,13.88,6-14.23-1.07-12.81-.36,13.52,3.56,13.52,3.56l-13.52,1.42,19.21,1.78-3.2-4.63Z" transform="translate(-4.31 -10.13)"/><path d="M428.79,340.32c2.13-.36,18.86-2.13,18.86-2.13L444.09,341l7.12.71-.36,3.2,6,9.61,13.52,10.32-4.63-10.32h-5.34l-3.91-9.61,8.18,3.56-4.63-.36,2.13,4.27,6.4.36,2.85,9.61,2.85,1.42-2.13,3.56,3.91,4.63.71,6.4-11.74-9.61,2.13-2.13h-6L451.57,357l2.13-2.49-5.69-.71s5.34-2.85,4.27-2.85h-7.47l5.34-2.13h-7.47l5.34-2.13h-6.4l3.91-2.85-8.9,1.07Z" transform="translate(-4.31 -10.13)"/><path d="M459,372c1.07,0,23.84,12.45,23.84,12.45L500,405.07l9.61,20.64-12.81-20.28-15.3-19.93Z" transform="translate(-4.31 -10.13)"/><polygon points="455.44 368.97 478.92 384.98 495.64 402.77 505.61 420.92 501.34 427.68 494.58 408.47 476.79 386.05 455.44 368.97"/><path d="M428.44,390.13c2.49,0,10.32.36,10.32.36l1.07,8.54,1.78-9.61,7.12-1.07,12.1,6.4,17.08,6L462.6,393l-14.23-7.83s-8.54,2.13-10,2.13-9.25-.71-9.25-.71Z" transform="translate(-4.31 -10.13)"/><polygon points="474.3 394.23 477.14 402.42 468.96 407.4 473.94 401 474.3 394.23"/><polygon points="477.85 394.59 483.55 408.82 466.47 413.45 461.13 424.12 462.56 440.49 457.57 442.27 445.12 442.27 444.76 440.13 456.51 438.35 456.86 425.9 466.47 410.6 479.99 405.62 477.85 394.59"/><path d="M492.13,420.73l-13.52,5.69-7.47,12.45L469,441.72s1.42,16.37,1.42,15.3,1.42-6.76,1.42-6.76l3.2,9.61,2.13-18.5-2.49-.36,6.4-12.45Z" transform="translate(-4.31 -10.13)"/><path d="M486.44,436.38c1.78-.36,9.61-2.13,9.61-2.13l3.56,12.45-11.39-6.4Z" transform="translate(-4.31 -10.13)"/><path d="M409.58,410.41c.36,1.78,1.07,22.06,1.07,22.06L421,446.7l-8.18-7.12-6.76-5,1.42-7.47Z" transform="translate(-4.31 -10.13)"/><path d="M402.47,432.11l3.91,11.74,24.19,11,17.79,7.83,3.91,1.07,34.87-5.69,8.54-8.9,10-18.15-.36-5.69-5.69-17.79,1.78-6s3.56,10.32,4.63,11,24.19,23.84,24.19,23.84-10-5.34-8.9-4.63,5,7.47,5,7.47l-10.67-7.83L517,464.49l4.63-.71,2.13-13.52.71,6.76,2.85-12.1v12.45l2.85-16.72S533,435,533,436.38s-.71,28.46-.71,28.46l6.76-16.72-8.9,31.67-3.2-2.13L500.31,489.4l-11.39-3.2-33.45-9.61-7.12-5.34,11-3.2s-12.45.36-15.3-1.07-27.4-16-28.46-16.37S405,446,405,446Z" transform="translate(-4.31 -10.13)"/><path d="M398.55,441c-.71-1.07-4.63-5.34-4.63-5.34l2.49-2.13-.36-14.23-2.49,12.1-3.2,2.49Z" transform="translate(-4.31 -10.13)"/><path d="M385.39,432.47c0-1.07.71-7.12.71-7.12l-4.27,7.12Z" transform="translate(-4.31 -10.13)"/><path d="M342,332.49c.36-2.13,1.07-16,1.07-16l8.9-6Z" transform="translate(-4.31 -10.13)"/><path d="M350.16,321.46c.71-1.78,4.63-8.9,4.63-8.9l5.69-3.56Z" transform="translate(-4.31 -10.13)"/><path d="M341.62,392.26c-1.07,0-14.59.71-13.16,1.07s8.54,1.78,8.54,1.78-11.74,8.18-10,7.47,8.9-4.63,8.9-4.63-12.81,11.74-10.32,10.32,8.9-4.63,8.9-4.63-6,8.18-5,7.47,6.76-5,6.76-5-2.85,8.9-2.13,7.83a50.77,50.77,0,0,1,5-4.63l-.36,10.32,5-13.52,1.25-.53,1.25-.53Z" transform="translate(-4.31 -10.13)"/><path d="M346.6,409l-6.4,16.72,4.27-5.69-.36,13.16,2.85-9.25.71,10.32,1.78-8.18,2.13,8.54,1.07-8.18s3.2,12.1,3.2,10.67-2.49-24.55-2.49-24.55l-2.13,11.39-1.07-12.81s-2.49,10.32-2.49,8.9S346.6,409,346.6,409Z" transform="translate(-4.31 -10.13)"/><path d="M355.5,415.39l3.2,26.33,1.42-10L363,446s.36-13.16.71-10.67,2.85,13.52,2.85,13.52l.36-10,3.2,11.39-.71-11s4.63,13.88,4.27,12.45-2.49-13.52-1.42-11.39,4.27,11,4.27,11-6.76-23.48-6.76-21.35a55.18,55.18,0,0,1-.71,6.4l-3.91-8.9.36,5.34-3.56-8.54V430l-3.2-8.18Z" transform="translate(-4.31 -10.13)"/><path d="M372.93,431.76c.71,1.42,6,20.28,6,20.28l-.36-8.18,3.91,8.54-.36-6.4L385,449.9l9.61,1.78,9.25,4.63,7.12,2.13,6.76-3.56-13.88-5.34L396.42,446l-3.2,1.78-2.49-4.27s-10.67-9.61-10.32-8.18-.36,7.12-.36,7.12l-4.27-8.9Z" transform="translate(-4.31 -10.13)"/><polygon points="423.42 398.15 415.94 399.22 417.37 403.84 421.99 402.77 420.21 400.64 423.42 398.15"/><polygon points="430.53 391.39 430.53 396.37 425.19 398.15 430.89 399.22 432.67 404.2 438.36 402.77 438.36 397.08 436.58 400.64 433.73 401.71 432.67 398.15 430.53 391.39"/><path d="M446.23,404.36v8.54l-8.54,6.76,2.13,16,5.34,5.69,8.9,3.91,2.13-9.61,14.23-22.42,5.34-6-7.83-5.34-8.18-.71Z" transform="translate(-4.31 -10.13)"/><polygon points="386.06 439.42 386.41 445.47 396.37 452.23 390.33 445.47 391.75 440.49 386.06 439.42"/><polygon points="398.15 444.05 397.09 449.03 406.34 451.16 401.71 447.61 402.78 444.4 398.15 444.05"/><polygon class="cls-5" points="404.91 322 390.33 326.27 394.95 355.1 402.07 331.26 412.39 329.12 404.91 322"/><polygon class="cls-5" points="398.87 374.67 405.98 372.89 417.01 377.87 421.28 386.05 422.7 381.07 433.38 380 424.84 383.2 426.26 392.81 419.15 394.59 421.28 389.25 415.23 386.76 411.32 378.94 405.98 375.38 398.87 374.67"/><polygon class="cls-5" points="381.43 333.39 376.09 347.27 380.72 355.45 381.43 333.39"/><polygon class="cls-5" points="423.06 363.28 431.24 348.69 436.94 348.33 423.06 363.28"/><polygon class="cls-5" points="426.26 369.68 439.78 362.57 444.76 363.99 455.08 359.37 444.41 368.62 438 367.55 426.26 369.68"/><path class="cls-5" d="M456.19,380.88c1.07.36,20.28,12.45,20.28,12.45l14.94,19.21-17.79-17.43Z" transform="translate(-4.31 -10.13)"/><path class="cls-5" d="M461.53,376.61c1.07.36,19.21,8.54,19.21,8.54L496.4,406.5l-18.5-19.57Z" transform="translate(-4.31 -10.13)"/><polygon class="cls-5" points="365.95 344.42 369.69 366.3 379.83 370.04 365.95 344.42"/><polygon class="cls-5" points="436.4 418.87 437.74 424.48 440.94 424.75 441.21 419.94 436.4 418.87"/><path class="cls-5" d="M440.71,426.87a33.38,33.38,0,0,1,4.8,1.6l.8-4.54-5.87-2.13Z" transform="translate(-4.31 -10.13)"/><path class="cls-5" d="M441.51,420.46c.8,0,5.87,2.4,5.87,2.4l3.2-5.34-4.27-2.67Z" transform="translate(-4.31 -10.13)"/><polygon class="cls-5" points="443.61 403.13 446.81 406.06 450.81 402.06 447.34 397.79 443.61 403.13"/><polygon class="cls-5" points="448.41 396.19 451.61 401 454.82 398.06 452.15 394.59 448.41 396.19"/><polygon class="cls-5" points="452.95 392.99 454.82 398.06 458.29 394.86 456.68 392.45 452.95 392.99"/><polygon class="cls-5" points="450.81 412.74 449.48 417.01 454.28 419.14 456.68 415.14 450.81 412.74"/><polygon class="cls-5" points="451.61 411.4 456.68 415.14 459.89 410.6 454.28 407.93 451.61 411.4"/><polygon class="cls-5" points="455.88 406.6 460.69 409.27 463.09 405 458.29 403.93 455.88 406.6"/><polygon class="cls-5" points="459.89 402.6 464.16 403.93 467.09 399.93 462.02 399.66 459.89 402.6"/><polygon class="cls-5" points="449.48 418.34 453.48 420.74 451.61 424.48 447.61 422.08 449.48 418.34"/><path class="cls-5" d="M451.12,433.8c.8.27,3.47,3.2,3.47,3.2l-1.07,4-2.94-2.4Z" transform="translate(-4.31 -10.13)"/><path class="cls-2" d="M347.67,173.09c2.13.71,22.77,21.35,22.77,21.35l14.23,42,56.93,26.33L459.39,304l47,41.27,36.29,11.39,36.29-3.56,19.93-2.85,7.83-14.94-24.91-47-35.58-12.1-5.69-13.52-29.89-7.12L499.24,245l-23.48-48.39-86.82-56.22-3.56,8.54-10.67,10Z" transform="translate(-4.31 -10.13)"/><path d="M352.65,171.66l24.19,14.23,10,24.91L417.41,230v4.27l-19.93-5.69,24.19,12.81-1.42,4.27L448,257.06l12.81,33.45,7.12,1.42-1.42,8.54,48.39,34.16,3,14.77,17.26,5.34-9.61-34.34,32,10.67,2.85-6.4L573.61,354l22.95-3-18.32-4.27-12.81-18.5v-7.83l-14.23-27-6.4-4.27-1.42-9.25s-30.6.71-28.46.71,29.89,12.1,29.89,12.1l11.39,19.93-22.77-7.12.71,5.69-9.25-2.85-7.12-18.5-.71,12.1-37.72-17.08-.71-10,5,7.83,14.23,3.56,1.42-5.69-18.5-10V256.35l18.5,8.54,6.4,19.93-5,3.56,9.25,2.13-7.12-32-29.89-10-10-7.83-65.47-30.6-6.4-19.21s-6.4-25.62-5.69-23.48S421,205.82,421,205.82l2.85,12.81s6.4-.71,8.54,0,18.5,7.12,18.5,7.12l7.12,8.54.71-6.4-5-7.83-24.19-9.25L416,183l-20.64-16.37-10-17.79-10.67,10Z" transform="translate(-4.31 -10.13)"/><polygon points="423.77 171.5 435.87 190 450.81 193.56 423.77 171.5"/><polygon points="457.93 201.39 460.78 209.22 467.89 207.08 457.93 201.39"/><path d="M549.77,353.84c0-2.13-7.83-19.93-7.83-19.93l23.48,19.21Z" transform="translate(-4.31 -10.13)"/><path class="cls-2" d="M191.12,438.52l-.71,39.85-10.67,13.52-3.56,2.85,89,42.7,8.54,4.27s57.64.71,59.78.71S364,568,364,568l14.23-.71,28.46,22.06,42-1.42,9.25,4.27,19.21.71-22.06-42-9.25-27.75L421,494l-61.91-20.64-34.87,5.69-63.33-39.85-36.29,7.12Z" transform="translate(-4.31 -10.13)"/><polygon class="cls-4" points="383.21 134.5 396.02 154.42 449.39 182.17 461.49 205.66 473.58 209.93 484.97 239.81 502.05 250.49 507.03 262.59 538.34 270.41 541.19 279.66 568.23 288.2 586.73 319.51 593.85 338.73 593.14 342.29 568.94 343.71 538.34 347.27 501.87 335.88 500.09 316.31 460.78 287.85 444.76 245.69 388.73 221.67 371.65 181.11 350.3 161.89 366.13 152.28 381.07 141.61 383.21 134.5"/><polygon class="cls-4" points="188.23 442.62 213.84 454.01 246.58 448.32 259.39 462.55 306.36 491.73 343.36 480.34 359.73 475.36 408.12 508.09 435.96 506.14 441.56 512.81 452.77 542.43 473.94 583.7 452.24 582.81 442.1 575.52 405.27 571.25 375.38 544.03 362.04 547.76 328.95 524.28 272.38 524.28 179.51 481.05 186.09 474.65 189.65 458.99 188.23 442.62"/><polygon points="186.63 458.99 221.5 471.09 254.23 476.78 263.48 475.36 282.69 496.71 311.16 499.55 343.89 490.3 356.7 506.67 347.45 511.65 347.45 504.54 336.78 498.84 323.26 506.67 341.05 518.77 362.39 510.94 368.8 519.48 390.86 517.34 409.36 545.1 451.35 540.83 465.76 568.22 447.79 565.02 405.8 571.43 375.2 544.38 361.68 547.94 344.61 525.88 326.1 525.17 304.75 517.34 306.89 510.23 279.14 500.26 258.5 481.76 237.86 483.9 255.65 500.98 267.56 503.65 284.12 507.38 272.73 510.23 254.23 508.09 227.19 486.03 219.36 486.74 180.22 473.94 186.63 468.24 186.63 458.99"/><polygon points="179.69 478.92 230.21 496 246.58 512.36 218.83 498.13 175.42 481.76 179.69 478.92"/><path d="M192.54,450.62c4.27,1.42,24.91,14.94,24.91,14.94l29.89-2.13,16.37,13.52L295,473.39l-24.91-2.13-19.93-17.08-33.45,4.27L190.4,441.37Z" transform="translate(-4.31 -10.13)"/><polygon points="356.17 493.86 373.96 513.07 378.23 503.11 356.17 493.86"/><path d="M324.19,479.08l16.37,14.23s22.06-3.56,24.91-2.13,47,29.18,47,29.18l30.51-.36-16.81-20.81-18.68,5.52L361.9,483.35l-22.06,4.27Z" transform="translate(-4.31 -10.13)"/><path d="M424.53,534.59c2.13-.71,24.19-4.27,24.19-4.27L453,543.13Z" transform="translate(-4.31 -10.13)"/><path d="M273.66,527.47c5-1.42,20.64-5,20.64-5l6.4,9.25Z" transform="translate(-4.31 -10.13)"/><path class="cls-6" d="M205,70.26l-1.78,12.81L211,93.39l11,3.56s21.35,11,22.42,11.39,16.72,6.76,16.72,6.76l10,14.23-1.07,6.4-6,7.47-14.23-2.49-21.7,13.16-.36,7.12,7.12,13.16,14.94,1.07L266.9,166l17.43.36,39.49-6,4.63,1.07-1.78,3.56,14.59,11.39,8.9-3.2,26-15.3,10-8.54,4.27-19.57-8.9-8.18-14.23-8.9-5.69,1.78v-5.69l-14.94-32-6.76-1.42s-5.69-25.26-6-26.33-1.07-8.9-1.07-8.9-3.2-10.32-3.56-12.1-1.07-8.54-1.07-8.54l-7.83-8.54L307.46,14l-5,12.45,4.63,10L310,56l.36,7.12-5,1.07L281.49,29l-5-6.4-2.85-5-11-7.47L249.47,17.6l.71,12.45,10.67,13.88,18.86,26L257.3,47.49,237.37,28.63l-11.74-1.78-8.18,10.67,1.78,10.67S235.95,63.14,237,63.85,263.34,87,261.92,87s-23.13-10.32-23.13-10.32l-20.64-9.61S205.35,70.26,205,70.26Z" transform="translate(-4.31 -10.13)"/><path class="cls-6" d="M31.15,367.95l10.12-8.06,12.87,1.48L62.81,369S83.18,381.8,84,382.54s14.34,10.95,14.34,10.95l17.32,1.32,5-4.18,3.35-9-9.39-11,.27-25.38,5.94-3.93,15-.58L144.31,353l.74,19.41,9.19,14.82,14.92,37.07,3.28,3.44,2.16-3.34,17.23,6.75,1.78,9.29.07,30.14-2.27,12.92-14.66,13.64-11.57-3.48L150.25,486l-1.37-5.81-4.9,2.9-35.17,3.46-4.67-5.09s-24.64,8-25.74,8.21-8.2,3.61-8.2,3.61-10.51,2.5-12.22,3.1-7.89,3.43-7.89,3.43l-11.34-2.38L35,484.77l8.18-10.63L54.09,473l18.29-7.52,6.3-3.32-1.62-4.83L34.61,454.8l-8-1-5.74.09-12-5.68L8.5,433l11.08-5.73L37,429.43l32,3L38.2,424.56,11.82,417l-7.51-9.2,5-12.48,10.09-3.91S40.8,398.21,42,398.77s33.32,10.87,32.59,9.65-20.66-14.64-20.66-14.64L35.1,380.91S31.33,368.26,31.15,367.95Z" transform="translate(-4.31 -10.13)"/><polygon points="84.43 407.25 92.22 388.99 107.87 390.27 102.39 404.06 98.85 398.09 84.43 407.25"/><path d="M88.35,422l14.42-9.16,3.53,6L115.67,399l7.55-8.19,1.86-4.2L142,395.17,127.2,382.82l16.15,8.42.68,9.52,7.1,22.47,4-.53,6.6,29s-9.65-24.68-9-22.57S156.88,457,156.88,457s-8.9-27.6-8-25,5.23,29.78,5.23,29.78L146,435.56l3.32,26.56-7.71-27.69.85,11.9-27.37,15.58,22.06-16.16-22,9.94,22-14.24-20.46,8.39,19.58-14.07-18,9.41-7.8-12.13,3,18.69-7.32-15.51,4.53,23.37s-7.66-20.27-7-18.16,5.08,24.29,5.08,24.29-8.48-21.65-8.12-20,5.54,24,4.91,21.9-14.62-20.5-14.62-20.5l-2.07-5.6Z" transform="translate(-4.31 -10.13)"/><polygon points="111.72 468 135.63 464.39 151.62 453.68 134.96 468.5 110.13 472.66 100.38 466.65 70.94 476.64 47.18 485.75 34.83 483.76 47.01 483.37 68.84 474.16 100.12 463.08 111.72 468"/><polygon points="149.18 463.19 159.3 454.09 162.58 426.1 160.35 415.01 167.36 422.65 164.58 444.15 171.93 423.05 171.28 440.8 167.41 460.45 163.62 450.91 160.71 463.8 147.31 470.5 155.7 460.57 149.18 463.19"/><polygon points="158.72 476.15 172.8 462.23 177.12 428.66 179.34 439.75 181.71 425.94 184.83 456.35 179.28 465.83 178.69 457.5 173.77 469.1 158.72 476.15"/><polygon points="165.38 479.02 172.51 481.63 181.56 467.59 165.38 479.02"/><path d="M38.66,482.59c.85.74,8.9,1.76,8.9,1.76l6.62,5.59,4.34-1.74L51.27,476l-6.22,0Z" transform="translate(-4.31 -10.13)"/><polygon points="52.27 464.33 53.96 467.88 61.09 469.45 66.01 473.56 72.37 471.04 64.93 460.56 59.37 460.95 52.27 464.33"/><polygon points="67.99 458.75 70.34 462.73 76.93 463.38 82.03 467.8 87.72 464.84 80.95 454.8 76.87 453.49 71.91 455.6 67.99 458.75"/><path d="M11,443.56c1,1,10.88,7.2,10.88,7.2l22.08,1,24.65,1.12,10.07.24,2.71,6.67-.31-8.91L60.5,451l-19.4-1.33L21,448Z" transform="translate(-4.31 -10.13)"/><polygon points="10.23 422.65 16.05 419.21 24.76 420.66 26.99 436.3 21.07 436.08 15.4 425.8 10.23 422.65"/><polygon points="30.86 421.19 30.28 426.49 36.86 429.21 40.22 438.39 48.52 438.44 47.31 425.92 45.44 422.06 30.86 421.19"/><polygon points="53.91 424.49 54.86 428.89 61.38 430.82 64.45 438.1 71.95 438.21 73.59 429.8 73 426.01 53.91 424.49"/><polygon points="4.94 397.66 8.64 402.51 25.81 408.46 46.52 414.81 73.02 421.86 76.69 421.76 78.33 402.18 73.95 419.24 47.51 412.98 24.23 406.5 9.14 400.56 4.94 397.66"/><path d="M11.45,398.22c.92-.54,7.89-3.43,7.89-3.43l9.62,3-1.44,6.64.19,9.4-7.42-3.46-3.61-8.2Z" transform="translate(-4.31 -10.13)"/><path d="M35,399.58c.73,1.22,13.58,4.78,13.58,4.78l1.15,11.72-4,4.43-5.1-4.42-2.63-10-4.87-1.25Z" transform="translate(-4.31 -10.13)"/><path d="M56.92,407.28c1.34.86,16.45,4.73,16.45,4.73l1.16,9.65,2.07-9.08-1.85,14.33-7.19-2.36-3.43-7.89-5.78-2.78Z" transform="translate(-4.31 -10.13)"/><path d="M116.33,347.7s2.64-3.22,3.49-2.48,11.3,8.61,11.3,8.61l-8.33-5,11.71,12.09-10.41-5L135.2,366.3l-3.37,13.16-13.19-8.31-1.79-7.21Z" transform="translate(-4.31 -10.13)"/><path d="M132.9,342.85c.73,1.22,5.49,10,5.49,10l-1.22,21,9.26,13.54,10.51,28.92L164,422l-5.26-8.88-9.24-26.78-9.13-14L141.73,355Z" transform="translate(-4.31 -10.13)"/><polygon points="29.08 360.21 33.49 368.36 51.24 380.18 68.19 392.05 76.94 398.45 84.57 388.97 75.69 394.23 63.11 385.55 46.51 374.29 33.63 365.8 29.08 360.21"/><polygon points="33.63 354.63 40.17 352.41 51.26 355.77 46.77 362.15 43.49 369.88 36.57 362.39 33.63 354.63"/><path d="M53.17,379.31s6.47-10,7.32-9.29S71,375.81,71,375.81l-7,12-5.47-3,.47-6.89Z" transform="translate(-4.31 -10.13)"/><path d="M69.05,387.27s4.87-7.84,5.41-6.92,8.76,4.32,8.76,4.32l4.49,4.79-7.94,11.73-6.44-5.29.16-6.71Z" transform="translate(-4.31 -10.13)"/><polygon points="272.55 84.5 260.81 100.52 269.88 113.33 278.96 101.58 272.02 101.58 272.55 84.5"/><path d="M280.6,92,280.07,109H287l-12.28,18.15-3.2,10.67-2.67,3.74,16,10.14-18.15-6.4,15.48,9.61,8.54-4.27,22.95-5.34,1.6,3.74L343.58,140s-26.15,4.27-24,3.74,26.15-10.67,26.15-10.67-28.29,6.4-25.62,5.87,28.29-10.67,28.29-10.67l-26.69,6.4L346.25,124l-27.75,7.47,10.67-5.34-.53-31.49L326,121.85l-2.67-24L322.23,124,319,102.1l-2.13,24-1.07-20.28-14.41-.53L319,98.37,301.95,100l22.42-8S303,95.7,305.15,95.17s23.48-8,23.48-8-22.95,3.74-21.35,3.2,23.48-7.47,21.35-6.94-25.08-2.13-25.08-2.13l-5.87,1.07Z" transform="translate(-4.31 -10.13)"/><polygon points="338.73 77.03 347.81 99.45 346.74 118.66 351.01 96.78 341.94 73.3 331.8 67.96 325.39 37.54 321.12 12.45 313.12 2.85 318.99 13.52 322.19 37 328.59 69.56 338.73 77.03"/><polygon points="353.68 111.72 351.01 125.07 328.59 142.15 317.92 145.88 328.06 148.02 345.14 134.67 330.73 151.75 345.67 142.15 360.62 128.8 350.48 130.4 360.08 121.33 359.01 106.39 354.75 118.66 353.68 111.72"/><polygon points="369.69 113.33 364.89 132.54 338.2 153.35 348.87 149.62 338.2 158.69 365.95 145.88 371.29 136.27 363.82 140.01 371.29 129.87 369.69 113.33"/><polygon points="375.56 117.59 381.43 122.4 373.96 137.34 375.56 117.59"/><path d="M307.46,18.31c1.07.36,6,6.76,6,6.76l8.18,2.85.71,4.63H308.18L305,27.21Z" transform="translate(-4.31 -10.13)"/><polygon points="305.29 27.75 309.2 27.4 314.18 32.73 320.23 34.87 321.3 41.63 308.49 40.56 306 35.58 305.29 27.75"/><polygon points="308.49 44.12 313.12 44.12 317.03 49.46 323.43 51.59 323.79 58 311.69 57.28 308.49 54.44 307.78 49.1 308.49 44.12"/><path d="M259.79,14.4c1.42.36,11.74,5.69,11.74,5.69l12.1,18.5,13.52,20.64,5.34,8.54,7.12-1.07L301.77,71,291.45,53.18l-11-16L268.68,20.8Z" transform="translate(-4.31 -10.13)"/><polygon points="248 12.81 248 19.57 253.7 26.33 268.28 20.28 265.08 15.3 253.34 15.66 248 12.81"/><polygon points="257.25 31.31 261.52 28.11 267.22 32.38 276.82 30.6 281.09 37.72 269.71 43.05 265.44 43.41 257.25 31.31"/><polygon points="271.84 49.46 276.11 48.03 281.09 52.66 288.92 51.59 292.83 58 286.43 63.69 282.87 65.11 271.84 49.46"/><polygon points="223.81 20.99 229.86 21.7 243.73 33.45 259.75 48.03 279.31 67.25 281.09 70.45 265.08 81.84 277.54 69.38 258.68 49.81 241.24 33.09 228.43 23.13 223.81 20.99"/><path d="M221,37.88c0,1.07,1.07,8.54,1.07,8.54l7.47,6.76,5-4.63,8.18-4.63-6.76-4.63-8.9,1.07Z" transform="translate(-4.31 -10.13)"/><path d="M234.17,57.45c1.42,0,11,9.25,11,9.25l10.67-5L257.65,56l-6.4-2.13-10,2.85-3.56-3.56Z" transform="translate(-4.31 -10.13)"/><path d="M252,72.39c1.42.71,12.45,11.74,12.45,11.74l8.9-3.91-6.76,6.4,11.39-8.9-5.69-5-8.54,1.07-5.34-3.56Z" transform="translate(-4.31 -10.13)"/><path d="M231,153.87s-1.42,3.91-.36,4.27,13.16,5.34,13.16,5.34l-8.54-4.63,16.37,3.91-9.61-6.4,14.59,4.27,9.61-9.61-13.88-7.12L245.2,146Z" transform="translate(-4.31 -10.13)"/><path d="M235.24,170.6c1.42,0,11.39-.36,11.39-.36l17.43-11.74,16.37,1.07,30.24-5.69,8.54,3.2H308.89l-27.75,5.69-16.72-.71-14.23,10Z" transform="translate(-4.31 -10.13)"/><polygon points="203.88 60.84 213.13 60.49 232.35 69.74 251.21 78.28 261.17 82.55 256.9 93.93 256.9 83.61 243.02 77.21 224.88 68.67 211 61.91 203.88 60.84"/><polygon points="201.39 67.6 202.81 74.36 211.35 82.19 214.56 75.08 219.54 68.31 209.58 66.18 201.39 67.6"/><path d="M226,83.42s-5.34,10.67-4.27,11,10.32,6,10.32,6l6.76-12.1-5.34-3.2-5.69,3.91Z" transform="translate(-4.31 -10.13)"/><path d="M240.93,93s-4.27,8.18-3.2,8.18,8.18,5.34,8.18,5.34l6.4,1.42,6-12.81-7.83-2.85-5.69,3.56Z" transform="translate(-4.31 -10.13)"/></svg>